<?xml version="1.0" encoding="UTF-8"?>
<svg id="Layer_2" data-name="Layer 2" xmlns="http://www.w3.org/2000/svg" viewBox="0 0 1504 347">
  <defs>
    <style>
      .cls-1 {
        fill: #fff;
        stroke-width: 0px;
      }
    </style>
  </defs>
  <g id="Layer_1-2" data-name="Layer 1">
    <path class="cls-1" d="m1503.1,15.34c-5.56,1.1-10.66,3.88-14.59,7.96-.34.36-.68.73-1.01,1.1-3.77-3.22-8.3-5.44-13.16-6.44-15.91-3.28-31.47,6.96-34.75,22.88-11.3-3.06-23.25,1.74-29.29,11.76-5.56-5.86-13.29-9.18-21.36-9.19-4.12,0-8.2.87-11.96,2.55-9.5,4.22-16.06,13.14-17.26,23.46-8.29-1.49-16.79,1.1-22.84,6.96-3.32-3.08-7.19-5.5-11.4-7.14-3.09-1.21-6.32-1.99-9.62-2.31-19.9-1.98-37.63,12.55-39.61,32.45-5.75-.93-11.63-.28-17.04,1.87-16.55,6.58-24.64,25.33-18.06,41.89-7.42,4.98-12.24,13.01-13.12,21.9-4.09-1.06-8.36-1.19-12.5-.37-10.82,2.14-19.36,10.48-21.74,21.25-2.7-1.72-5.62-3.05-8.68-3.97-7.21-2.15-14.93-1.83-21.94.91-3.85,1.51-7.4,3.68-10.5,6.41-3.17,2.78-5.86,6.06-7.98,9.7-2.21,3.79-3.8,7.9-4.71,12.19-7.6-3.18-16.1-3.47-23.9-.82-4.47-3.79-9.56-6.8-15.03-8.89-11.43-4.33-24.06-4.27-35.44.19-5.63,2.22-10.82,5.4-15.36,9.4-4.63,4.08-8.57,8.88-11.66,14.22-.85,1.47-1.64,2.97-2.36,4.5-4.05-1.77-8.52-2.76-13.22-2.76-4.32,0-8.43.84-12.21,2.34-3.12-14.31-14.94-24.99-29-24.99-5.71.01-11.28,1.77-15.97,5.05-4.72,3.31-8.46,7.85-10.8,13.12-1.79-1.92-3.8-3.62-5.99-5.08-2.17-1.45-4.52-2.62-6.98-3.5-2.07-18-16.26-31.57-33.01-31.57-2.98,0-5.95.43-8.8,1.28-2.79.83-5.46,2.05-7.92,3.6-5,3.2-9.1,7.61-11.92,12.83-4.81-3.59-10.65-5.54-16.65-5.54-10.78,0-20.73,6.36-25.96,16.59-1.26-4.01-3.2-7.77-5.75-11.12-8.5-11.16-22.23-16-35.16-13.71-1.37-16.97-15.56-30.31-32.88-30.31-3.47,0-6.82.54-9.97,1.54-14.04-25.93-41.48-43.54-73.03-43.54-29.52,0-55.42,15.42-70.13,38.64-4.94-2.94-10.7-4.64-16.87-4.64-18.23,0-33,14.77-33,33,0,0,0,.02,0,.03-5.37-3.79-11.92-6.03-19-6.03-.57,0-1.14.01-1.7.04-6.25-25.29-29.08-44.04-56.3-44.04-11.5,0-22.21,3.36-31.22,9.13-5.92-5.65-13.94-9.13-22.78-9.13-13.66,0-25.38,8.3-30.4,20.14-3.42-.74-6.96-1.14-10.6-1.14-6.02,0-11.79,1.07-17.14,3.02-1.51-16.83-15.64-30.02-32.86-30.02-5.85,0-11.35,1.53-16.11,4.2-8.16-5.79-18.12-9.2-28.89-9.2s-20.87,3.46-29.06,9.32c-1.28-11.47-8.68-21.87-20.15-26.43-5.41-2.15-11.3-2.8-17.04-1.87-1.9-19.17-18.43-33.35-37.42-32.6-4.12-26.3-26.87-46.42-54.33-46.42-7.94,0-15.48,1.7-22.29,4.72C109.67,10.46,96.56,0,81,0c-14.03,0-26.07,8.5-31.26,20.62-5.91-3.24-12.96-4.49-20.08-3.02-4.86,1-9.39,3.22-13.16,6.44-.32-.37-.66-.74-1.01-1.1-3.93-4.09-9.03-6.86-14.59-7.96-.3-.06-.6-.11-.9-.16v331.82h731v.36h773V15.18c-.3.05-.6.1-.9.16Z"/>
  </g>
</svg>