<svg xmlns="http://www.w3.org/2000/svg" width="3304" height="2367" viewBox="0 0 3304 2367">
  <g id="Group_2" data-name="Group 2" transform="translate(-5977 479)">
    <g id="Group_1" data-name="Group 1" transform="translate(3695)">
      <path id="Union_1" data-name="Union 1" d="M342.338,290.832V291H107.629a107.586,107.586,0,1,1,38.5-208.083,107.647,107.647,0,0,1,212.415,24.668q0,2.921-.154,5.8A89.117,89.117,0,0,1,347.849,291Q345.073,291,342.338,290.832Z" transform="translate(2595 -146)" fill="#e5f4fb"/>
      <path id="Union_8" data-name="Union 8" d="M66.718,204.882V205H232.143A75.791,75.791,0,1,0,205.005,58.413,75.874,75.874,0,0,0,55.294,75.79q0,2.058.108,4.087A62.779,62.779,0,0,0,62.834,205Q64.791,205,66.718,204.882Z" transform="translate(4652 -60)" fill="#e5f4fb"/>
      <path id="Union_10" data-name="Union 10" d="M241.282,204.882V205H75.857A75.791,75.791,0,1,1,102.995,58.413,75.874,75.874,0,0,1,252.706,75.79q0,2.058-.108,4.087A62.779,62.779,0,0,1,245.166,205Q243.209,205,241.282,204.882Z" transform="translate(2524 1377)" fill="#e5f4fb"/>
      <path id="Union_4" data-name="Union 4" d="M445.745,378.782V379H140.139a140.12,140.12,0,1,1,50.134-271.008A140.159,140.159,0,0,1,466.85,140.12q0,3.8-.2,7.556A116.069,116.069,0,0,1,452.921,379Q449.3,379,445.745,378.782Z" transform="translate(3918 439)" fill="#e5f4fb"/>
      <path id="Union_2" data-name="Union 2" d="M107.716,304A107.6,107.6,0,0,1,74.162,94.125a107.77,107.77,0,0,1,199.617-41.3,96.078,96.078,0,0,1,149.8,73.979A89.126,89.126,0,0,1,410.1,304H107.716Z" transform="translate(3478 -159)" fill="#e5f4fb"/>
      <path id="Union_6" data-name="Union 6" d="M107.716,304A107.6,107.6,0,0,1,74.162,94.125a107.77,107.77,0,0,1,199.617-41.3,96.078,96.078,0,0,1,149.8,73.979A89.126,89.126,0,0,1,410.1,304H107.716Z" transform="translate(4801 514)" fill="#e5f4fb"/>
      <path id="Union_7" data-name="Union 7" d="M160.387,452C71.808,452,0,380.374,0,292.017,0,221.064,46.313,160.9,110.425,139.949,120.306,61.048,187.789,0,269.567,0A160.384,160.384,0,0,1,407.651,78.55a142.591,142.591,0,0,1,80.275-24.58c76.261,0,138.579,59.551,142.772,134.574C694.309,198.4,743,253.27,743,319.484,743,392.51,683.781,451.739,610.632,452H160.387Z" transform="translate(3266 1130)" fill="#e5f4fb"/>
      <path id="Union_3" data-name="Union 3" d="M58.178,199h0a58.342,58.342,0,0,1,0-116.683h2.265a62.868,62.868,0,0,1,101.3-45.327A70.529,70.529,0,0,1,293.3,58.6a71.252,71.252,0,0,1,8.21-.473,70.435,70.435,0,1,1,0,140.87Z" transform="translate(2992 619)" fill="#e5f4fb"/>
      <path id="Union_5" data-name="Union 5" d="M88.831,304h0a89.126,89.126,0,0,1,0-178.25h3.458a95.98,95.98,0,0,1,154.67-69.243A107.674,107.674,0,0,1,447.83,89.523a108.74,108.74,0,0,1,12.535-.722,107.6,107.6,0,1,1,0,215.2Z" transform="translate(4483 1278)" fill="#e5f4fb"/>
    </g>
    <rect id="Rectangle_32" data-name="Rectangle 32" width="3304" height="2367" transform="translate(5977 -479)" fill="none"/>
  </g>
</svg>
