<?xml version="1.0" encoding="UTF-8"?>
<svg id="Layer_2" data-name="Layer 2" xmlns="http://www.w3.org/2000/svg" viewBox="0 0 264.73 264.6">
  <defs>
    <style>
      .cls-1 {
        fill: #79c3ec;
      }

      .cls-1, .cls-2, .cls-3, .cls-4, .cls-5 {
        stroke-width: 0px;
      }

      .cls-2 {
        fill: #c870ad;
      }

      .cls-3 {
        fill: #3a91cf;
      }

      .cls-4 {
        fill: #8d57a3;
      }

      .cls-5 {
        fill: #40966a;
      }
    </style>
  </defs>
  <g id="Layer_1-2" data-name="Layer 1">
    <g>
      <g>
        <path class="cls-1" d="m132.97,197.03c3.5-3.41,18.04-18,18.04-25.28,0-8.29-10.51-31.39-18.8-31.39s-18.8,23.11-18.8,31.39c0,6.54,11.71,18.96,16.65,23.9.12-13.08.43-26.43,1.45-39.33,1.06,13.34,1.35,27.19,1.46,40.71Z"/>
        <path class="cls-1" d="m132.98,207.92c-.1,13.52-.4,27.36-1.46,40.71-1.03-12.88-1.34-26.25-1.45-39.32-4.93,4.94-16.64,17.36-16.64,23.9,0,8.29,10.51,31.39,18.8,31.39s18.8-23.11,18.8-31.39c0-7.29-14.54-21.87-18.04-25.28Z"/>
        <path class="cls-1" d="m126.08,201.01c-4.36-4.41-17.72-17.34-24.59-17.34-8.29,0-31.39,10.51-31.39,18.8s23.1,18.8,31.39,18.8c6.87,0,20.24-12.93,24.59-17.34-13.52-.11-27.37-.4-40.72-1.46,13.34-1.06,27.2-1.35,40.72-1.46Z"/>
        <path class="cls-1" d="m138.35,203.93c4.35,4.4,17.72,17.35,24.6,17.35,8.29,0,31.39-10.51,31.39-18.8s-23.11-18.8-31.39-18.8c-6.88,0-20.25,12.94-24.6,17.35,13.07.11,26.43.43,39.32,1.45-12.88,1.03-26.25,1.34-39.32,1.45Z"/>
      </g>
      <path class="cls-5" d="m158.74,263.8c4.89.07,25.48.03,30.64-5.12,5.86-5.86,14.76-29.63,8.9-35.49-5.86-5.86-29.63,3.04-35.49,8.9-4.63,4.63-5.13,21.69-5.13,28.67,9.33-9.16,18.99-18.39,28.83-26.78-8.68,10.18-18.27,20.19-27.75,29.82Z"/>
      <path class="cls-5" d="m106.77,261.74c.04-6.2-.27-24.79-5.13-29.65-5.86-5.86-29.63-14.76-35.49-8.9-5.86,5.86,3.04,29.63,8.9,35.49,4.86,4.86,23.45,5.17,29.65,5.13-9.48-9.64-19.07-19.64-27.76-29.83,10.18,8.69,20.19,18.28,29.83,27.76Z"/>
      <g>
        <path class="cls-4" d="m55.98,132.79c-4.36-4.41-17.72-17.34-24.59-17.34-8.29,0-31.39,10.51-31.39,18.8s23.1,18.8,31.39,18.8c6.87,0,20.24-12.93,24.59-17.34-13.52-.11-27.37-.4-40.72-1.46,13.34-1.06,27.2-1.35,40.72-1.46Z"/>
        <path class="cls-4" d="m68.25,135.7c4.35,4.4,17.72,17.35,24.6,17.35,8.29,0,31.39-10.51,31.39-18.8s-23.11-18.8-31.39-18.8c-6.88,0-20.25,12.94-24.6,17.35,13.07.11,26.43.43,39.32,1.45-12.88,1.03-26.25,1.34-39.32,1.45Z"/>
        <path class="cls-4" d="m80.92,164.98c0-7.29-14.53-21.87-18.04-25.28-.1,13.52-.4,27.36-1.46,40.71-1.03-12.88-1.34-26.25-1.45-39.32-4.93,4.94-16.64,17.36-16.64,23.9,0,8.29,10.51,31.39,18.8,31.39s18.8-23.11,18.8-31.39Z"/>
        <path class="cls-4" d="m62.88,128.8c3.5-3.41,18.04-18,18.04-25.28,0-8.29-10.51-31.39-18.8-31.39s-18.8,23.11-18.8,31.39c0,6.54,11.71,18.96,16.65,23.9.12-13.08.43-26.43,1.45-39.33,1.06,13.34,1.35,27.19,1.46,40.71Z"/>
      </g>
      <g>
        <path class="cls-2" d="m196.47,132.79c-4.35-4.41-17.72-17.34-24.6-17.34-8.29,0-31.39,10.51-31.39,18.8s23.11,18.8,31.39,18.8c6.88,0,20.25-12.94,24.6-17.34-13.3-.11-26.9-.42-40.02-1.46,13.11-1.04,26.73-1.34,40.02-1.46Z"/>
        <path class="cls-2" d="m233.34,115.45c-6.88,0-20.24,12.93-24.6,17.34,13.3.11,26.9.41,40.02,1.46-13.11,1.05-26.73,1.35-40.02,1.46,4.35,4.41,17.72,17.34,24.6,17.34,8.29,0,31.39-10.51,31.39-18.8s-23.11-18.8-31.39-18.8Z"/>
        <path class="cls-2" d="m201.15,140.39c-4.41,4.35-17.34,17.72-17.34,24.6,0,8.29,10.51,31.39,18.8,31.39s18.8-23.11,18.8-31.39c0-6.88-12.93-20.24-17.34-24.6-.11,13.3-.41,26.9-1.46,40.02-1.05-13.11-1.35-26.73-1.46-40.02Z"/>
        <path class="cls-2" d="m204.06,128.12c4.41-4.35,17.34-17.72,17.34-24.6,0-8.29-10.51-31.39-18.8-31.39s-18.8,23.11-18.8,31.39c0,6.88,12.94,20.25,17.34,24.6.11-13.3.42-26.9,1.46-40.02,1.04,13.11,1.34,26.73,1.46,40.02Z"/>
      </g>
      <g>
        <path class="cls-3" d="m132.97,56.67c3.5-3.41,18.04-18,18.04-25.28,0-8.29-10.51-31.39-18.8-31.39s-18.8,23.11-18.8,31.39c0,6.54,11.71,18.96,16.65,23.9.12-13.08.43-26.43,1.45-39.33,1.06,13.34,1.35,27.19,1.46,40.71Z"/>
        <path class="cls-3" d="m130.06,68.95c-4.93,4.94-16.64,17.36-16.64,23.9,0,8.29,10.51,31.39,18.8,31.39s18.8-23.11,18.8-31.39c0-7.29-14.54-21.87-18.04-25.28-.1,13.52-.4,27.36-1.46,40.71-1.03-12.88-1.34-26.25-1.45-39.32Z"/>
        <path class="cls-3" d="m101.49,80.92c6.87,0,20.24-12.93,24.59-17.34-13.52-.11-27.37-.4-40.72-1.46,13.34-1.06,27.2-1.35,40.72-1.46-4.36-4.41-17.72-17.34-24.59-17.34-8.29,0-31.39,10.51-31.39,18.8s23.1,18.8,31.39,18.8Z"/>
        <path class="cls-3" d="m138.35,63.58c4.35,4.4,17.72,17.35,24.6,17.35,8.29,0,31.39-10.51,31.39-18.8s-23.11-18.8-31.39-18.8c-6.88,0-20.25,12.94-24.6,17.35,13.07.11,26.43.43,39.32,1.45-12.88,1.03-26.25,1.34-39.32,1.45Z"/>
      </g>
    </g>
  </g>
</svg>