<?xml version="1.0" encoding="UTF-8"?>
<svg id="Layer_2" data-name="Layer 2" xmlns="http://www.w3.org/2000/svg" viewBox="0 0 1626 554.23">
  <defs>
    <style>
      .cls-1 {
        fill: #fff;
        stroke-width: 0px;
      }
    </style>
  </defs>
  <g id="Layer_1-2" data-name="Layer 1">
    <g>
      <path class="cls-1" d="m281.44,66.45c1.81-3.03,4.71-7.38,4.71-7.38,0,0-4.35,2.91-7.38,4.71-1.08-5.25-2.77-18.56-2.77-18.56,0,0-1.7,13.31-2.77,18.56-3.03-1.81-7.38-4.71-7.38-4.71,0,0,2.91,4.35,4.71,7.38-5.25,1.08-18.56,2.77-18.56,2.77,0,0,13.31,1.7,18.56,2.77-1.81,3.03-4.72,7.38-4.72,7.38,0,0,4.35-2.91,7.38-4.71,1.08,5.25,2.77,18.56,2.77,18.56,0,0,1.7-13.31,2.77-18.56,3.03,1.81,7.38,4.71,7.38,4.71,0,0-2.91-4.35-4.72-7.38,5.25-1.08,18.56-2.77,18.56-2.77,0,0-13.31-1.7-18.56-2.77Z"/>
      <path class="cls-1" d="m1626,178.23s-13.31-1.7-18.56-2.77c1.81-3.03,4.71-7.38,4.71-7.38,0,0-4.35,2.91-7.38,4.71-1.08-5.25-2.77-18.56-2.77-18.56,0,0-1.7,13.31-2.77,18.56-3.03-1.81-7.38-4.71-7.38-4.71,0,0,2.91,4.35,4.71,7.38-5.25,1.08-18.56,2.77-18.56,2.77,0,0,13.31,1.7,18.56,2.77-1.81,3.03-4.71,7.38-4.71,7.38,0,0,4.35-2.91,7.38-4.71,1.08,5.25,2.77,18.56,2.77,18.56,0,0,1.7-13.31,2.77-18.56,3.03,1.81,7.38,4.71,7.38,4.71,0,0-2.91-4.35-4.71-7.38,5.25-1.08,18.56-2.77,18.56-2.77Z"/>
      <path class="cls-1" d="m77.95,376.72c.98-1.64,2.55-4,2.55-4,0,0-2.36,1.58-4,2.55-.58-2.85-1.5-10.05-1.5-10.05,0,0-.92,7.21-1.5,10.05-1.64-.98-4-2.55-4-2.55,0,0,1.58,2.36,2.55,4-2.85.58-10.05,1.5-10.05,1.5,0,0,7.21.92,10.05,1.5-.98,1.64-2.55,4-2.55,4,0,0,2.36-1.58,4-2.55.58,2.85,1.5,10.05,1.5,10.05,0,0,.92-7.21,1.5-10.05,1.64.98,4,2.55,4,2.55,0,0-1.58-2.36-2.55-4,2.85-.58,10.05-1.5,10.05-1.5,0,0-7.21-.92-10.05-1.5Z"/>
      <path class="cls-1" d="m893.95,12.72c.98-1.64,2.55-4,2.55-4,0,0-2.36,1.58-4,2.55-.58-2.85-1.5-10.05-1.5-10.05,0,0-.92,7.21-1.5,10.05-1.64-.98-4-2.55-4-2.55,0,0,1.58,2.36,2.55,4-2.85.58-10.05,1.5-10.05,1.5,0,0,7.21.92,10.05,1.5-.98,1.64-2.55,4-2.55,4,0,0,2.36-1.58,4-2.55.58,2.85,1.5,10.05,1.5,10.05,0,0,.92-7.21,1.5-10.05,1.64.98,4,2.55,4,2.55,0,0-1.58-2.36-2.55-4,2.85-.58,10.05-1.5,10.05-1.5,0,0-7.21-.92-10.05-1.5Z"/>
      <path class="cls-1" d="m1035.95,213.72c.98-1.64,2.55-4,2.55-4,0,0-2.36,1.58-4,2.55-.58-2.85-1.5-10.05-1.5-10.05,0,0-.92,7.21-1.5,10.05-1.64-.98-4-2.55-4-2.55,0,0,1.58,2.36,2.55,4-2.85.58-10.05,1.5-10.05,1.5,0,0,7.21.92,10.05,1.5-.98,1.64-2.55,4-2.55,4,0,0,2.36-1.58,4-2.55.58,2.85,1.5,10.05,1.5,10.05,0,0,.92-7.21,1.5-10.05,1.64.98,4,2.55,4,2.55,0,0-1.58-2.36-2.55-4,2.85-.58,10.05-1.5,10.05-1.5,0,0-7.21-.92-10.05-1.5Z"/>
      <path class="cls-1" d="m691.95,249.72c.98-1.64,2.55-4,2.55-4,0,0-2.36,1.58-4,2.55-.58-2.85-1.5-10.05-1.5-10.05,0,0-.92,7.21-1.5,10.05-1.64-.98-4-2.55-4-2.55,0,0,1.58,2.36,2.55,4-2.85.58-10.05,1.5-10.05,1.5,0,0,7.21.92,10.05,1.5-.98,1.64-2.55,4-2.55,4,0,0,2.36-1.58,4-2.55.58,2.85,1.5,10.05,1.5,10.05,0,0,.92-7.21,1.5-10.05,1.64.98,4,2.55,4,2.55,0,0-1.58-2.36-2.55-4,2.85-.58,10.05-1.5,10.05-1.5,0,0-7.21-.92-10.05-1.5Z"/>
      <path class="cls-1" d="m1464.5,48.17c1.64.98,4,2.55,4,2.55,0,0-1.58-2.36-2.55-4,2.85-.58,10.05-1.5,10.05-1.5,0,0-7.21-.92-10.05-1.5.98-1.64,2.55-4,2.55-4,0,0-2.36,1.58-4,2.55-.58-2.85-1.5-10.05-1.5-10.05,0,0-.92,7.21-1.5,10.05-1.64-.98-4-2.55-4-2.55,0,0,1.58,2.36,2.55,4-2.85.58-10.05,1.5-10.05,1.5,0,0,7.21.92,10.05,1.5-.98,1.64-2.55,4-2.55,4,0,0,2.36-1.58,4-2.55.58,2.85,1.5,10.05,1.5,10.05,0,0,.92-7.21,1.5-10.05Z"/>
      <path class="cls-1" d="m1603.81,305.3c.6-1.01,1.57-2.46,1.57-2.46,0,0-1.45.97-2.46,1.57-.36-1.75-.92-6.19-.92-6.19,0,0-.57,4.44-.92,6.19-1.01-.6-2.46-1.57-2.46-1.57,0,0,.97,1.45,1.57,2.46-1.75.36-6.19.92-6.19.92,0,0,4.44.57,6.19.92-.6,1.01-1.57,2.46-1.57,2.46,0,0,1.45-.97,2.46-1.57.36,1.75.92,6.19.92,6.19,0,0,.57-4.44.92-6.19,1.01.6,2.46,1.57,2.46,1.57,0,0-.97-1.45-1.57-2.46,1.75-.36,6.19-.92,6.19-.92,0,0-4.44-.57-6.19-.92Z"/>
      <path class="cls-1" d="m1472.81,193.3c.6-1.01,1.57-2.46,1.57-2.46,0,0-1.45.97-2.46,1.57-.36-1.75-.92-6.19-.92-6.19,0,0-.57,4.44-.92,6.19-1.01-.6-2.46-1.57-2.46-1.57,0,0,.97,1.45,1.57,2.46-1.75.36-6.19.92-6.19.92,0,0,4.44.57,6.19.92-.6,1.01-1.57,2.46-1.57,2.46,0,0,1.45-.97,2.46-1.57.36,1.75.92,6.19.92,6.19,0,0,.57-4.44.92-6.19,1.01.6,2.46,1.57,2.46,1.57,0,0-.97-1.45-1.57-2.46,1.75-.36,6.19-.92,6.19-.92,0,0-4.44-.57-6.19-.92Z"/>
      <path class="cls-1" d="m751.81,406.3c.6-1.01,1.57-2.46,1.57-2.46,0,0-1.45.97-2.46,1.57-.36-1.75-.92-6.19-.92-6.19,0,0-.57,4.44-.92,6.19-1.01-.6-2.46-1.57-2.46-1.57,0,0,.97,1.45,1.57,2.46-1.75.36-6.19.92-6.19.92,0,0,4.44.57,6.19.92-.6,1.01-1.57,2.46-1.57,2.46,0,0,1.45-.97,2.46-1.57.36,1.75.92,6.19.92,6.19,0,0,.57-4.44.92-6.19,1.01.6,2.46,1.57,2.46,1.57,0,0-.97-1.45-1.57-2.46,1.75-.36,6.19-.92,6.19-.92,0,0-4.44-.57-6.19-.92Z"/>
      <path class="cls-1" d="m588.81,114.3c.6-1.01,1.57-2.46,1.57-2.46,0,0-1.45.97-2.46,1.57-.36-1.75-.92-6.19-.92-6.19,0,0-.57,4.44-.92,6.19-1.01-.6-2.46-1.57-2.46-1.57,0,0,.97,1.45,1.57,2.46-1.75.36-6.19.92-6.19.92,0,0,4.44.57,6.19.92-.6,1.01-1.57,2.46-1.57,2.46,0,0,1.45-.97,2.46-1.57.36,1.75.92,6.19.92,6.19,0,0,.57-4.44.92-6.19,1.01.6,2.46,1.57,2.46,1.57,0,0-.97-1.45-1.57-2.46,1.75-.36,6.19-.92,6.19-.92,0,0-4.44-.57-6.19-.92Z"/>
      <path class="cls-1" d="m1445.4,429.49c1.13-1.89,2.95-4.61,2.95-4.61,0,0-2.72,1.82-4.61,2.95-.67-3.28-1.73-11.6-1.73-11.6,0,0-1.06,8.32-1.73,11.6-1.89-1.13-4.61-2.95-4.61-2.95,0,0,1.82,2.72,2.95,4.61-3.28.67-11.6,1.73-11.6,1.73,0,0,8.32,1.06,11.6,1.73-1.13,1.89-2.95,4.61-2.95,4.61,0,0,2.72-1.82,4.61-2.95.67,3.28,1.73,11.6,1.73,11.6,0,0,1.06-8.32,1.73-11.6,1.89,1.13,4.61,2.95,4.61,2.95,0,0-1.82-2.72-2.95-4.61,3.28-.67,11.6-1.73,11.6-1.73,0,0-8.32-1.06-11.6-1.73Z"/>
      <path class="cls-1" d="m156.81,531.3c.6-1.01,1.57-2.46,1.57-2.46,0,0-1.45.97-2.46,1.57-.36-1.75-.92-6.19-.92-6.19,0,0-.57,4.44-.92,6.19-1.01-.6-2.46-1.57-2.46-1.57,0,0,.97,1.45,1.57,2.46-1.75.36-6.19.92-6.19.92,0,0,4.44.57,6.19.92-.6,1.01-1.57,2.46-1.57,2.46,0,0,1.45-.97,2.46-1.57.36,1.75.92,6.19.92,6.19,0,0,.57-4.44.92-6.19,1.01.6,2.46,1.57,2.46,1.57,0,0-.97-1.45-1.57-2.46,1.75-.36,6.19-.92,6.19-.92,0,0-4.44-.57-6.19-.92Z"/>
      <path class="cls-1" d="m507.81,438.3c.6-1.01,1.57-2.46,1.57-2.46,0,0-1.45.97-2.46,1.57-.36-1.75-.92-6.19-.92-6.19,0,0-.57,4.44-.92,6.19-1.01-.6-2.46-1.57-2.46-1.57,0,0,.97,1.45,1.57,2.46-1.75.36-6.19.92-6.19.92,0,0,4.44.57,6.19.92-.6,1.01-1.57,2.46-1.57,2.46,0,0,1.45-.97,2.46-1.57.36,1.75.92,6.19.92,6.19,0,0,.57-4.44.92-6.19,1.01.6,2.46,1.57,2.46,1.57,0,0-.97-1.45-1.57-2.46,1.75-.36,6.19-.92,6.19-.92,0,0-4.44-.57-6.19-.92Z"/>
      <path class="cls-1" d="m210.81,250.3c.6-1.01,1.57-2.46,1.57-2.46,0,0-1.45.97-2.46,1.57-.36-1.75-.92-6.19-.92-6.19,0,0-.57,4.44-.92,6.19-1.01-.6-2.46-1.57-2.46-1.57,0,0,.97,1.45,1.57,2.46-1.75.36-6.19.92-6.19.92,0,0,4.44.57,6.19.92-.6,1.01-1.57,2.46-1.57,2.46,0,0,1.45-.97,2.46-1.57.36,1.75.92,6.19.92,6.19,0,0,.57-4.44.92-6.19,1.01.6,2.46,1.57,2.46,1.57,0,0-.97-1.45-1.57-2.46,1.75-.36,6.19-.92,6.19-.92,0,0-4.44-.57-6.19-.92Z"/>
      <path class="cls-1" d="m27.81,337.3c.6-1.01,1.57-2.46,1.57-2.46,0,0-1.45.97-2.46,1.57-.36-1.75-.92-6.19-.92-6.19,0,0-.57,4.44-.92,6.19-1.01-.6-2.46-1.57-2.46-1.57,0,0,.97,1.45,1.57,2.46-1.75.36-6.19.92-6.19.92,0,0,4.44.57,6.19.92-.6,1.01-1.57,2.46-1.57,2.46,0,0,1.45-.97,2.46-1.57.36,1.75.92,6.19.92,6.19,0,0,.57-4.44.92-6.19,1.01.6,2.46,1.57,2.46,1.57,0,0-.97-1.45-1.57-2.46,1.75-.36,6.19-.92,6.19-.92,0,0-4.44-.57-6.19-.92Z"/>
      <circle class="cls-1" cx="80.5" cy="147.73" r="2.5"/>
      <circle class="cls-1" cx="618.5" cy="237.73" r="2.5"/>
      <circle class="cls-1" cx="775.5" cy="44.73" r="2.5"/>
      <circle class="cls-1" cx="1399.5" cy="83.73" r="2.5"/>
      <circle class="cls-1" cx="1512.5" cy="329.73" r="2.5"/>
      <circle class="cls-1" cx="1528.5" cy="509.73" r="2.5"/>
      <circle class="cls-1" cx="1544.5" cy="232.73" r="2.5"/>
      <circle class="cls-1" cx="636.5" cy="390.73" r="2.5"/>
      <circle class="cls-1" cx="239.5" cy="551.73" r="2.5"/>
      <circle class="cls-1" cx="2.5" cy="456.73" r="2.5"/>
      <circle class="cls-1" cx="778.5" cy="152.73" r="2.5"/>
      <circle class="cls-1" cx="1057.5" cy="114.73" r="2.5"/>
      <circle class="cls-1" cx="1118.5" cy="459.73" r="2.5"/>
    </g>
  </g>
</svg>