<svg xmlns="http://www.w3.org/2000/svg" width="870.943" height="870.944" viewBox="0 0 870.943 870.944">
  <g id="Group_3" data-name="Group 3" transform="translate(-10153.529 -116.528)">
    <path id="Path_9" data-name="Path 9" d="M83.006,0c29.447,0,83.006,133.775,83.006,179.618S128.85,306.5,83.006,306.5,0,225.461,0,179.618,52.626,0,83.006,0Z" transform="translate(10299.379 216.374) rotate(-30)" fill="#f9dd8f"/>
    <path id="Path_10" data-name="Path 10" d="M83.006,0c29.447,0,83.006,133.775,83.006,179.618S128.85,306.5,83.006,306.5,0,225.461,0,179.618,52.626,0,83.006,0Z" transform="translate(10878.623 887.626) rotate(150)" fill="#f9dd8f"/>
    <path id="Path_11" data-name="Path 11" d="M83.006,0c29.447,0,83.006,133.775,83.006,179.618S128.85,306.5,83.006,306.5,0,225.461,0,179.618,52.626,0,83.006,0Z" transform="translate(10153.529 635.006) rotate(-90)" fill="#f9dd8f"/>
    <path id="Path_12" data-name="Path 12" d="M83.006,0c29.447,0,83.006,133.775,83.006,179.618S128.85,306.5,83.006,306.5,0,225.461,0,179.618,52.626,0,83.006,0Z" transform="translate(11024.473 468.993) rotate(90)" fill="#f9dd8f"/>
    <path id="Path_13" data-name="Path 13" d="M83.006,0c29.447,0,83.006,133.775,83.006,179.618S128.85,306.5,83.006,306.5,0,225.461,0,179.618,52.626,0,83.006,0Z" transform="translate(10443.151 970.633) rotate(-150)" fill="#f9dd8f"/>
    <path id="Path_14" data-name="Path 14" d="M83.006,0c29.447,0,83.006,133.775,83.006,179.618S128.85,306.5,83.006,306.5,0,225.461,0,179.618,52.626,0,83.006,0Z" transform="translate(10734.851 133.367) rotate(30)" fill="#f9dd8f"/>
    <path id="Path_3" data-name="Path 3" d="M83.006-178.66c29.447,0,83.006,133.775,83.006,179.618S128.85,127.84,83.006,127.84,0,46.8,0,.958,52.626-178.66,83.006-178.66Z" transform="translate(10505.994 295.188)" fill="#ffe395"/>
    <path id="Path_4" data-name="Path 4" d="M83.006,0c29.447,0,83.006,133.775,83.006,179.618S128.85,306.5,83.006,306.5,0,225.461,0,179.618,52.626,0,83.006,0Z" transform="translate(10672.008 987.472) rotate(180)" fill="#ffe395"/>
    <path id="Path_5" data-name="Path 5" d="M83.006,0c29.447,0,83.006,133.775,83.006,179.618S128.85,306.5,83.006,306.5,0,225.461,0,179.618,52.626,0,83.006,0Z" transform="translate(10170.368 406.15) rotate(-60)" fill="#ffe395"/>
    <path id="Path_6" data-name="Path 6" d="M83.006,0c29.447,0,83.006,133.775,83.006,179.618S128.85,306.5,83.006,306.5,0,225.461,0,179.618,52.626,0,83.006,0Z" transform="translate(11007.634 697.85) rotate(120)" fill="#ffe395"/>
    <path id="Path_7" data-name="Path 7" d="M83.006,0c29.447,0,83.006,133.775,83.006,179.618S128.85,306.5,83.006,306.5,0,225.461,0,179.618,52.626,0,83.006,0Z" transform="translate(10253.374 841.622) rotate(-120)" fill="#ffe395"/>
    <path id="Path_8" data-name="Path 8" d="M83.006,0c29.447,0,83.006,133.775,83.006,179.618S128.85,306.5,83.006,306.5,0,225.461,0,179.618,52.626,0,83.006,0Z" transform="translate(10924.628 262.378) rotate(60)" fill="#ffe395"/>
    <circle id="Ellipse_40" data-name="Ellipse 40" cx="167" cy="167" r="167" transform="translate(10422 385)" fill="#915d5d"/>
    <circle id="Ellipse_41" data-name="Ellipse 41" cx="136" cy="136" r="136" transform="translate(10453 416)" fill="#845252"/>
  </g>
</svg>
